<?xml version="1.0" encoding="utf-8"?>
<!-- Generator: Adobe Illustrator 27.7.0, SVG Export Plug-In . SVG Version: 6.00 Build 0)  -->
<svg version="1.1" id="Capa_1" xmlns="http://www.w3.org/2000/svg" xmlns:xlink="http://www.w3.org/1999/xlink" x="0px" y="0px"
	 viewBox="0 0 1974.49 512" style="enable-background:new 0 0 1974.49 512;" xml:space="preserve">
<style type="text/css">
	.st0{filter:url(#Adobe_OpacityMaskFilter);}
	.st1{fill-rule:evenodd;clip-rule:evenodd;fill:#FFFFFF;}
	.st2{mask:url(#SVGID_1_);}
	.st3{fill-rule:evenodd;clip-rule:evenodd;fill:#374151;}
	.st4{filter:url(#Adobe_OpacityMaskFilter_00000123438438064648422240000010406299257774496944_);}
	.st5{fill:#FFFFFF;}
	
		.st6{mask:url(#SVGID_00000061445922763514803750000006722961410293993405_);fill:url(#SVGID_00000170968896105652153580000015232445026279119803_);}
</style>
<g>
	<defs>
		<filter id="Adobe_OpacityMaskFilter" filterUnits="userSpaceOnUse" x="660" y="29.6" width="1242.01" height="460.8">
			
				<feColorMatrix  type="matrix" values="-1 0 0 0 1  0 -1 0 0 1  0 0 -1 0 1  0 0 0 1 0" color-interpolation-filters="sRGB" result="source"/>
			<feFlood  style="flood-color:white;flood-opacity:1" result="back"/>
			<feBlend  in="source" in2="back" mode="normal"/>
		</filter>
	</defs>
	<mask maskUnits="userSpaceOnUse" x="660" y="29.6" width="1242.01" height="460.8" id="SVGID_1_">
		<g class="st0">
			<path class="st1" d="M1181.11,282.74c-53.46,0-106.76,0-160.08,0c6.08-26.9,33.89-44.93,70.99-46.12
				C1141.4,235.04,1171.21,250.32,1181.11,282.74z"/>
		</g>
	</mask>
	<g class="st2">
		<path class="st3" d="M1136.96,342.31c-37.52,0-75.05,0.59-112.54-0.31c-13.25-0.32-14.15,3.79-11.32,15.02
			c7.89,31.24,26.44,51.25,58.11,58.29c25.5,5.67,50.59,4.52,75.1-5.32c10.45-4.19,18.62-10.94,26.1-19.19
			c5.33-5.89,5.99-17.71,14.58-17.85c6.84-0.1,13.78,6.53,20.68,10.15c7.81,4.11,15.64,8.2,23.46,12.31
			c17.53,9.2,17.52,9.19,6.8,26.38c-27.13,43.53-69.06,61.01-117.61,67.11c-68.18,8.57-130.11-20.26-161.35-75.09
			c-34.15-59.93-34.64-179.84,56.74-228.83c59.43-31.85,172.73-31.43,221.06,46.79c18.65,30.2,25.6,63.19,26.7,98.08
			c0.34,10.78-4.25,12.79-13.96,12.66C1212,342.02,1174.48,342.31,1136.96,342.31z"/>
		<path class="st3" d="M1694.77,199.48c38.22-33.79,79.83-41.75,125.31-27.62c47.59,14.79,80.79,62.61,81.53,118
			c0.82,60.97,0.05,121.96,0.37,182.94c0.05,8.43-1.66,11.96-10.95,11.53c-16.12-0.76-32.33-0.77-48.45-0.01
			c-9.67,0.46-12.29-2.6-12.24-12.24c0.3-56.29-0.05-112.58-0.27-168.87c-0.17-43.15-24.92-67.96-67.85-68.21
			c-40.74-0.24-67.01,25.66-67.31,67.48c-0.4,55.77-0.49,111.54,0.15,167.3c0.13,11.76-2.85,15.48-14.65,14.59
			c-14.52-1.08-29.23-1.08-43.75,0.01c-11.6,0.87-13.36-3.67-13.33-14.08c0.34-142.29,0.36-284.58-0.03-426.87
			c-0.03-11.04,2.84-14.37,13.78-13.64c14.53,0.97,29.26,1.17,43.74-0.04c12.53-1.05,14.3,4.02,14.18,15.03
			C1694.46,95.3,1694.77,145.85,1694.77,199.48z"/>
		<path class="st3" d="M782.33,293.16c0-58.36-0.33-116.73,0.28-175.09c0.12-11.26-3.24-13.77-13.93-13.53
			c-32.29,0.71-64.61,0.01-96.92,0.42c-8.54,0.11-12.09-1.92-11.74-11.19c0.67-17.69,0.56-35.44,0.03-53.14
			c-0.24-7.96,1.81-10.82,10.3-10.79c100.58,0.27,201.16,0.26,301.73-0.01c8.14-0.02,10.85,2.06,10.55,10.41
			c-0.62,17.18-0.74,34.41,0.02,51.58c0.45,10-2.18,13.49-12.8,13.24c-31.77-0.72-63.59,0.37-95.35-0.57
			c-12.19-0.36-14.36,3.62-14.33,14.9c0.42,114.12,0.26,228.25,0.26,342.37c0,22.42-0.01,22.42-23.19,22.42
			c-14.07,0-28.19-0.66-42.2,0.21c-10.37,0.65-13.04-2.8-12.96-13C782.57,411.98,782.33,352.57,782.33,293.16z"/>
		<path class="st3" d="M1277.34,337.74c0.82-115.95,79.65-184.04,183.35-171.41c58.14,7.08,101.95,33.22,127.55,87.29
			c4.66,9.85,3.22,14.22-7.3,17.69c-14.77,4.88-29.29,10.79-43.38,17.39c-8.84,4.14-11.98,2.11-15.46-6.71
			c-8.11-20.6-23.73-33.39-45.02-39.97c-23.63-7.31-47.31-7.75-70.85-1.34c-39.86,10.87-60.1,44.25-57.36,93.97
			c1.88,33.87,13.41,63.32,47.38,76.08c37.5,14.1,74.78,12.1,108.41-12.46c8.97-6.55,14.93-16.24,18.26-26.77
			c2.71-8.56,6.92-8.06,13.63-5.27c15.35,6.4,30.75,12.76,46.45,18.17c9.68,3.34,9.56,8.04,5.85,16.14
			c-25.52,55.76-70.57,83.31-129.91,88.42c-56.78,4.89-107.79-8.69-146.2-54.06C1286.22,403.57,1277.25,366.12,1277.34,337.74z"/>
	</g>
</g>
<defs>
	
		<filter id="Adobe_OpacityMaskFilter_00000176752031833826807760000007166484275556581026_" filterUnits="userSpaceOnUse" x="76.39" y="0.01" width="512" height="511.97">
		
			<feColorMatrix  type="matrix" values="-1 0 0 0 1  0 -1 0 0 1  0 0 -1 0 1  0 0 0 1 0" color-interpolation-filters="sRGB" result="source"/>
		<feFlood  style="flood-color:white;flood-opacity:1" result="back"/>
		<feBlend  in="source" in2="back" mode="normal"/>
	</filter>
</defs>
<mask maskUnits="userSpaceOnUse" x="76.39" y="0.01" width="512" height="511.97" id="SVGID_00000152263946730023207230000010692373751595058079_">
	<g style="filter:url(#Adobe_OpacityMaskFilter_00000176752031833826807760000007166484275556581026_);">
		<path class="st5" d="M247.81,182.19c-20.93,0-41.19,0-61.71,0c0-12.13,0-23.91,0-35.93c54.24,0,108.35,0,162.74,0
			c0,11.92,0,23.7,0,35.85c-20.51,0-40.74,0-61.33,0c0,61.32,0,122.29,0,183.6c-13.33,0-26.3,0-39.71,0
			C247.81,304.74,247.81,243.78,247.81,182.19z"/>
		<path class="st5" d="M348.28,310.1c10.5,0,20.34,0,30.49,0c0.06,1.4,0.15,2.68,0.17,3.96c0.08,6.17,3.06,10.95,7.92,14.9
			c4.02,3.27,8.59,5.39,13.69,6.82c6.46,1.82,12.94,1.61,19.52,1.15c4.52-0.31,8.77-1.4,12.89-3.07c3.46-1.4,6.61-3.23,9.23-5.84
			c5.58-5.56,6.99-12.06,4.87-19.29c-0.94-3.21-3.14-5.73-5.91-7.74c-4.59-3.32-9.57-6-15.03-7.89c-8.2-2.84-16.27-6.02-24.57-8.57
			c-6.26-1.92-12.2-4.39-17.98-7.26c-6.39-3.16-12.33-7.05-17.1-12.08c-5.94-6.26-10.38-13.35-12.06-21.88
			c-0.95-4.83-1.23-9.72-0.4-14.34c2.19-12.32,8.11-22.97,18.47-31.17c7.17-5.68,15.56-8.79,24.62-10.58
			c6.61-1.3,13.33-1.89,20.03-1.24c3.5,0.34,7.05,0.8,10.56,1.47c3.33,0.64,6.41,1.72,9.59,2.66c11.22,3.34,19.51,10.17,25.97,19.17
			c4.82,6.71,7.11,14.29,8.59,22.17c0.68,3.63,1.38,7.23,1.04,11.11c-10.1,0-20.02,0-30.05,0c-0.26-2.16-0.49-4.14-0.72-6.12
			c-0.99-8.26-6-17.06-15.56-20.02c-8.05-2.49-16.1-2.85-24.22-1.14c-6.67,1.41-12.33,4.53-15.65,10.47
			c-0.76,1.36-1.36,2.87-1.65,4.38c-1.12,5.8-0.08,11.14,4.41,15.55c4.2,4.13,9.4,6.91,14.84,9.25c3.69,1.58,7.55,2.8,11.36,4.15
			c8.28,2.92,16.57,5.8,24.85,8.71c12.1,4.25,22.27,10.89,29.52,21.12c4.62,6.52,7.32,13.63,8.25,21.45
			c0.78,6.51-0.48,12.6-2.43,18.81c-5.56,17.73-19.09,27.42-36.88,32.92c-9.94,3.07-20.19,3.96-30.64,3.52
			c-6.05-0.26-11.86-1.47-17.66-2.9c-6.34-1.56-12.21-4.09-17.7-7.44c-8.2-4.99-14.38-11.63-18.61-19.92
			c-2.57-5.04-4.28-10.3-4.99-15.83C348.95,316.49,348.65,313.44,348.28,310.1z"/>
	</g>
</mask>
<linearGradient id="SVGID_00000077291224003142622790000007036818368374770858_" gradientUnits="userSpaceOnUse" x1="332.3861" y1="511.9851" x2="332.3861" y2="0.0149">
	<stop  offset="0" style="stop-color:#3B82F6"/>
	<stop  offset="1" style="stop-color:#0EA5E9"/>
</linearGradient>
<path style="mask:url(#SVGID_00000152263946730023207230000010692373751595058079_);fill:url(#SVGID_00000077291224003142622790000007036818368374770858_);" d="
	M480.05,511.99H184.72c-59.83,0-108.34-48.5-108.34-108.34v-295.3c0-59.83,48.5-108.34,108.34-108.34h295.33
	c59.83,0,108.34,48.5,108.34,108.34v295.3C588.39,463.48,539.88,511.99,480.05,511.99z"/>
</svg>
